<svg width="68" height="73" viewBox="0 0 68 73" fill="none" xmlns="http://www.w3.org/2000/svg">
<path d="M49.0965 65.8393L38.7504 57.5018C37.6268 56.5984 36.0017 56.9827 35.3532 58.3023L29.3808 70.4795C27.2807 74.7632 21.1311 73.2613 21.0406 68.4427L20.7917 54.7438C20.7653 53.2578 19.4645 52.1602 18.0808 52.4534L5.29898 55.1401C0.804605 56.0832 -1.91389 50.0956 1.61525 47.0167L11.6484 38.2711C12.7381 37.324 12.7418 35.5725 11.6635 34.6136L1.69443 25.7848C-1.81208 22.682 0.951653 16.7103 5.43848 17.693L18.2014 20.4867C19.5852 20.7879 20.8935 19.7021 20.9312 18.2161L21.2857 4.52117C21.4101 -0.293454 27.571 -1.74775 29.641 2.55173L35.5229 14.7805C36.1601 16.108 37.7851 16.5042 38.9125 15.6087L49.3227 7.35843C52.9838 4.45777 57.9042 8.61459 55.9964 12.9973L50.5669 25.4519C49.9788 26.8032 50.6951 28.3843 52.0638 28.7528L64.691 32.1607C69.1326 33.3614 69.1062 39.9948 64.6571 41.1559L52.0035 44.4608C50.631 44.8174 49.9034 46.3945 50.4802 47.7498L55.8154 60.2519C57.6931 64.6465 52.7387 68.7637 49.1002 65.8353L49.0965 65.8393Z" fill="#1D1D1B"/>
</svg>
