<svg width="65" height="65" viewBox="0 0 65 65" fill="none" xmlns="http://www.w3.org/2000/svg">
<g clip-path="url(#clip0_117_67)">
<path d="M52.9079 58.3598C49.8036 58.1905 45.7797 51.9119 41.6599 52.354C37.2168 52.7962 39.3285 65.351 36.9541 64.9922C35.6381 63.6 35.1582 61.3438 34.264 59.4741C30.4296 49.7061 26.5397 55.3734 22.5638 61.0936C21.5636 62.5464 19.7424 64.5526 19.9874 61.4271C20.7249 54.628 23.117 45.8555 12.4197 51.0351C-2.47582 58.0869 15.7413 45.1026 12.2378 40.6962C9.25465 37.505 3.19744 39.2585 0.00213056 37.457C-0.252989 35.6 8.77219 33.9981 10.3155 31.2895C14.4732 26.8983 -3.58723 19.9147 3.64454 20.0258C17.6862 22.1684 17.4715 19.9854 12.1292 8.18102C11.5962 6.75348 12.0989 6.1673 13.4856 7.10973C23.8874 15.1747 25.8071 15.5436 26.964 1.57642C28.5149 -5.50066 31.1545 13.6966 36.3858 10.6622C39.4093 9.74753 42.9911 1.39197 44.7593 2.04384C45.7772 5.56091 42.6754 11.0639 45.0927 14.6997C47.3256 18.4998 60.2837 8.64592 58.0558 13.2267C57.3006 14.5481 56.1361 15.8872 55.108 17.2567C47.5656 26.5142 56.7903 26.163 63.4765 27.0145C66.5556 27.5223 64.2721 28.7629 62.5596 29.4476C55.9896 32.0223 49.7227 34.5135 58.2907 40.4637C59.9048 41.7624 61.9887 42.7503 63.0395 44.3497C62.9258 46.7424 51.0741 41.8079 49.6596 46.0223C48.2779 49.9133 53.4662 55.3077 52.913 58.3522L52.9054 58.3573L52.9079 58.3598Z" fill="#1D1D1B"/>
</g>
<defs>
<clipPath id="clip0_117_67">
<rect width="65" height="65" fill="white"/>
</clipPath>
</defs>
</svg>
