<svg width="371" height="313" viewBox="0 0 371 313" fill="none" xmlns="http://www.w3.org/2000/svg">
<g clip-path="url(#clip0_133_62)">
<path d="M323.004 231.644C310.682 230.972 294.711 206.05 278.358 207.805C260.722 209.56 269.104 259.393 259.68 257.969C254.456 252.443 252.551 243.488 249.002 236.066C233.782 197.295 218.342 219.79 202.561 242.495C198.591 248.261 191.362 256.224 192.335 243.818C195.262 216.831 204.757 182.011 162.297 202.57C103.173 230.56 175.481 179.023 161.575 161.532C149.734 148.866 125.692 155.826 113.009 148.676C111.996 141.304 147.819 134.946 153.945 124.195C170.448 106.765 98.7617 79.0459 127.466 79.4872C183.201 87.9916 182.349 79.3267 161.144 32.4723C159.028 26.8061 161.023 24.4794 166.528 28.2201C207.815 60.2319 215.435 61.6961 220.027 6.25712C226.183 -21.8335 236.66 54.3651 257.424 42.3206C269.425 38.6901 283.642 5.52502 290.66 8.11244C294.701 22.0725 282.389 43.9151 291.984 58.3465C300.847 73.4298 352.28 34.3176 343.437 52.4998C340.439 57.7448 335.817 63.06 331.737 68.4956C301.799 105.241 338.414 103.847 364.953 107.227C377.175 109.243 368.111 114.167 361.314 116.884C335.236 127.104 310.361 136.992 344.37 160.61C350.776 165.765 359.048 169.686 363.219 176.034C362.767 185.531 315.725 165.945 310.111 182.673C304.626 198.117 325.22 219.529 323.024 231.613L322.994 231.634L323.004 231.644Z" fill="#1D1D1B"/>
</g>
<g clip-path="url(#clip1_133_62)">
<path d="M72.9271 98.3007L57.5601 85.8517C55.8912 84.5027 53.4775 85.0766 52.5143 87.0469L43.6435 105.229C40.5242 111.625 31.3903 109.383 31.2559 102.188L30.8862 81.7336C30.847 79.5148 28.915 77.8758 26.8597 78.3137L7.87493 82.3253C1.19947 83.7335 -2.83829 74.7931 2.40352 70.1958L17.3057 57.1373C18.9242 55.7232 18.9298 53.1079 17.3281 51.6761L2.52112 38.4933C-2.68708 33.8605 1.41788 24.9438 8.08214 26.4112L27.0389 30.5825C29.0942 31.0322 31.0374 29.411 31.0934 27.1922L31.6199 6.74359C31.8047 -0.445373 40.9554 -2.61685 44.03 3.80292L52.7663 22.0623C53.7127 24.0444 56.1264 24.6361 57.8009 23.2989L73.2631 10.98C78.7009 6.64892 86.0092 12.8557 83.1755 19.3997L75.1112 37.9963C74.2375 40.014 75.3016 42.3748 77.3345 42.9251L96.0896 48.0135C102.687 49.8063 102.647 59.7111 96.0392 61.4448L77.2449 66.3794C75.2064 66.9119 74.1255 69.2668 74.9824 71.2904L82.9067 89.958C85.6956 96.5198 78.3369 102.667 72.9327 98.2948L72.9271 98.3007Z" fill="#1D1D1B"/>
</g>
<g clip-path="url(#clip2_133_62)">
<path d="M100.111 258.805L124.486 252.56C132.808 250.43 132.858 238.245 124.55 236.04L100.226 229.6M100.111 258.805C97.3125 259.52 95.8433 262.665 97.0087 265.365M100.111 258.805C97.3125 259.52 95.8383 262.67 97.0087 265.365M97.0087 265.365L107.288 289M107.288 289C109.046 293.04 107.607 296.945 104.878 299.175M107.288 289C109.046 293.04 107.612 296.945 104.878 299.175M104.878 299.175C102.148 301.405 98.1392 301.945 94.7376 299.26M94.7376 299.26L94.5633 299.12V299.13L74.801 283.51M94.7376 299.26L94.5533 299.12V299.13L74.801 283.51M74.801 283.51C72.51 281.7 69.198 282.475 67.8782 285.105M74.801 283.51C72.505 281.7 69.198 282.475 67.8782 285.105M67.8782 285.105L56.3734 308.125M56.3734 308.125L56.5975 308.235M56.3734 308.125C52.4489 315.975 40.9491 313.245 40.7797 304.38M56.3734 308.125C52.4538 315.975 40.9491 313.245 40.7797 304.38M40.7797 304.38L40.3016 278.485M40.3016 278.485C40.2468 275.53 37.6072 273.325 34.7783 273.915M40.3016 278.485C40.2468 275.53 37.6022 273.33 34.7783 273.915M34.7783 273.915L10.1601 278.995M10.1601 278.995C5.96161 279.86 2.59484 277.555 1.09076 274.305M10.1601 278.995C5.96161 279.855 2.58986 277.55 1.09076 274.305M1.09076 274.305C-0.408349 271.055 -0.0298371 266.9 3.27218 264.07M1.09076 274.305C-0.413329 271.055 -0.0298371 266.895 3.27218 264.07M3.27218 264.07L22.5962 247.535C24.8125 245.645 24.8175 242.155 22.6261 240.24L3.42657 223.555M3.27218 264.07L22.6012 247.54C24.8175 245.65 24.8225 242.16 22.6311 240.245L3.42657 223.555M3.42657 223.555C0.144478 220.705 -0.204152 216.545 1.31986 213.305M3.42657 223.555C0.144478 220.705 -0.204152 216.54 1.31986 213.305M1.31986 213.305C2.84387 210.07 6.23055 207.79 10.4241 208.69M1.31986 213.305C2.84885 210.07 6.23553 207.79 10.4241 208.69M10.4241 208.69L35.0074 213.97C37.8313 214.575 40.4909 212.4 40.5656 209.44L41.2479 183.55M41.2479 183.55C41.482 174.695 53.0017 172.05 56.8715 179.93C53.0067 172.05 41.482 174.695 41.2479 183.55ZM100.226 229.6C97.5914 228.905 96.0475 225.57 97.178 223.015M100.226 229.6C97.5914 228.9 96.0475 225.57 97.178 223.015M97.178 223.015L107.637 199.47M107.637 199.47C109.425 195.44 108.015 191.525 105.301 189.27M107.637 199.47C109.425 195.44 108.015 191.52 105.301 189.27M105.301 189.27C102.587 187.02 98.5825 186.445 95.1609 189.11M105.301 189.27C102.587 187.02 98.5825 186.45 95.1609 189.11M95.1609 189.11L75.1098 204.705C75.1098 204.705 70.5079 206.985 68.2069 203.055M68.2069 203.055L68.2816 203.205M68.2069 203.055L56.9512 180.085" stroke="#1D1D1B"/>
</g>
<defs>
<clipPath id="clip0_133_62">
<rect width="258" height="258" fill="white" transform="translate(113)"/>
</clipPath>
<clipPath id="clip1_133_62">
<rect width="101" height="109" fill="white"/>
</clipPath>
<clipPath id="clip2_133_62">
<rect width="131" height="138" fill="white" transform="translate(0 175)"/>
</clipPath>
</defs>
</svg>
