<svg width="621" height="476" viewBox="0 0 621 476" fill="none" xmlns="http://www.w3.org/2000/svg">
<g clip-path="url(#clip0_123_58)">
<path d="M556.819 381.756C540.342 380.857 518.985 347.532 497.118 349.879C473.536 352.226 484.744 418.863 472.141 416.959C465.156 409.569 462.609 397.594 457.863 387.67C437.511 335.825 416.865 365.905 395.762 396.266C390.453 403.977 380.787 414.625 382.087 398.036C386.002 361.948 398.698 315.387 341.92 342.879C262.859 380.308 359.55 311.391 340.955 288.003C325.121 271.065 292.971 280.372 276.012 270.81C274.657 260.954 322.56 252.451 330.752 238.075C352.82 214.768 256.96 177.701 295.344 178.291C369.873 189.663 368.734 178.076 340.378 115.422C337.549 107.845 340.217 104.734 347.578 109.736C402.787 152.543 412.977 154.501 419.117 80.3671C427.349 42.8041 441.359 144.698 469.125 128.591C485.173 123.737 504.184 79.3881 513.569 82.848C518.972 101.516 502.508 130.724 515.338 150.021C527.19 170.191 595.967 117.89 584.143 142.203C580.134 149.217 573.953 156.324 568.497 163.593C528.464 212.729 577.426 210.865 612.914 215.385C629.257 218.08 617.137 224.665 608.047 228.299C573.176 241.964 539.913 255.187 585.389 286.769C593.956 293.662 605.017 298.905 610.594 307.394C609.991 320.094 547.086 293.903 539.578 316.272C532.244 336.924 559.782 365.556 556.846 381.716L556.806 381.742L556.819 381.756Z" fill="#1D1D1B"/>
</g>
<g clip-path="url(#clip1_123_58)">
<path d="M220.477 130.767L199.937 114.206C197.706 112.412 194.48 113.175 193.192 115.796L181.335 139.984C177.166 148.493 164.957 145.51 164.778 135.938L164.284 108.728C164.231 105.777 161.649 103.596 158.902 104.179L133.526 109.515C124.603 111.389 119.206 99.4955 126.213 93.3797L146.131 76.0084C148.295 74.1272 148.302 70.6482 146.161 68.7434L126.37 51.2068C119.408 45.0438 124.895 33.1822 133.803 35.1342L159.141 40.6832C161.888 41.2814 164.486 39.1248 164.561 36.1731L165.264 8.97088C165.511 -0.592409 177.742 -3.48107 181.852 5.05899L193.529 29.349C194.794 31.9858 198.02 32.7729 200.259 30.994L220.926 14.6065C228.194 8.84495 237.963 17.1017 234.175 25.807L223.396 50.5456C222.228 53.2297 223.651 56.3702 226.368 57.1022L251.437 63.8713C260.254 66.2562 260.202 79.4323 251.369 81.7385L226.248 88.3029C223.523 89.0113 222.079 92.144 223.224 94.8359L233.816 119.669C237.544 128.398 227.708 136.576 220.484 130.759L220.477 130.767Z" fill="#1D1D1B"/>
</g>
<g clip-path="url(#clip2_123_58)">
<path d="M195.589 296.207L216.588 249.118C223.967 232.548 204.937 216.832 190.777 227.799L195.589 296.207ZM195.589 296.207C193.314 301.316 196.085 307.294 201.378 308.687L195.589 296.207ZM150.82 259.386L191.083 228.194C197.954 222.872 205.992 224.017 211.441 228.518C216.893 233.02 219.72 240.857 216.132 248.915C216.132 248.915 216.131 248.915 216.131 248.915L195.132 296.003L195.132 296.004C192.737 301.382 195.647 307.695 201.251 309.171C201.251 309.171 201.251 309.171 201.251 309.171L250.088 322.055L150.82 259.386ZM150.82 259.386C146.204 262.971 139.556 261.377 136.955 256.081L150.82 259.386ZM114.206 209.846L136.955 256.081L201.021 367.592C195.401 369.02 192.447 375.317 194.795 380.711L194.795 380.711L215.43 427.98L215.43 427.98C218.961 436.059 216.075 443.87 210.587 448.329C205.103 452.786 197.054 453.869 190.226 448.497L189.872 448.218L189.857 448.233L150.196 416.989L150.196 416.989C145.595 413.373 138.948 414.919 136.301 420.184L136.301 420.184L113.202 466.224L113.649 466.448L113.202 466.224C105.327 481.925 82.2323 476.466 81.8914 458.738C81.8914 458.738 81.8914 458.738 81.8914 458.738L80.9289 406.945C80.8215 401.031 75.5174 396.63 69.8426 397.805L20.408 407.963C11.9793 409.692 5.21502 405.082 2.20131 398.588C-0.813154 392.093 -0.0446603 383.775 6.58559 378.12L45.3896 345.055C49.8389 341.275 49.8523 334.293 45.4522 330.468L45.4514 330.468L6.89464 297.088L6.89448 297.087C0.307099 291.389 -0.397919 283.064 2.66635 276.59C5.72981 270.119 12.5292 265.559 20.9434 267.361L70.3061 277.923L70.3066 277.924C75.9793 279.13 81.3149 274.778 81.4684 268.863L82.8392 217.085C83.3074 199.373 106.444 194.087 114.206 209.846C114.206 209.846 114.206 209.846 114.206 209.846ZM249.961 355.097L201.022 367.592L250.088 322.055C266.769 326.463 266.668 350.835 249.961 355.097Z" stroke="black"/>
</g>
<defs>
<clipPath id="clip0_123_58">
<rect width="345" height="345" fill="white" transform="translate(276 72)"/>
</clipPath>
<clipPath id="clip1_123_58">
<rect width="135" height="145" fill="white" transform="translate(123)"/>
</clipPath>
<clipPath id="clip2_123_58">
<rect width="263" height="276" fill="white" transform="translate(0 200)"/>
</clipPath>
</defs>
</svg>
