<?xml version="1.0" encoding="UTF-8"?>
<svg id="Capa_1" xmlns="http://www.w3.org/2000/svg" xmlns:xlink="http://www.w3.org/1999/xlink" version="1.1" viewBox="0 0 65 69">
  <!-- Generator: Adobe Illustrator 29.1.0, SVG Export Plug-In . SVG Version: 2.1.0 Build 142)  -->
  <defs>
    <style>
      .st0, .st1 {
        fill: none;
      }

      .st1 {
        stroke: #000;
        stroke-width: 1px;
      }

      .st2 {
        clip-path: url(#clippath);
      }
    </style>
    <clipPath id="clippath">
      <rect class="st0" width="65" height="69"/>
    </clipPath>
  </defs>
  <g class="st2">
    <path class="st1" d="M17.2,49.1l-12.2,2.5h0c-1.9.4-3.4-.6-4.1-2.1-.7-1.5-.5-3.4,1-4.7,0,0,0,0,0,0l9.6-8.3c1.3-1.1,1.3-3.1,0-4.2h0S2,24,2,24h0c-1.5-1.3-1.6-3.2-1-4.7.7-1.5,2.2-2.5,4.1-2.1h0l12.2,2.6h0c1.7.4,3.2-.9,3.2-2.6l.3-12.9c.1-4.1,5.3-5.2,7-1.7l5.6,11.6c.7,1.5,2.7,2,4,1l10-7.8s0,0,0,0c1.5-1.2,3.3-1,4.6,0,1.2,1,1.9,2.8,1.1,4.7l-5.2,11.8h0c-.7,1.5.1,3.4,1.8,3.8l12.1,3.2s0,0,0,0c3.7,1,3.7,6.6,0,7.5h0l-12.1,3.1c-1.6.4-2.5,2.2-1.8,3.8h0s5.1,11.8,5.1,11.8h0c.8,1.9.1,3.6-1.1,4.7-1.2,1-3,1.3-4.6,0l-.4-.3h0s-9.5-7.6-9.5-7.6M37.4,54c-1.3-1.1-3.2-.6-4,.9h0M33.3,54.9,37.4,54,33.3,54.9l-5.7,11.5h0M33.3,54.9l-5.7,11.5M27.6,66.4c-1.8,3.5-6.9,2.4-7-1.7M20.6,64.7,27.6,66.4,20.6,64.7l-.2-12.9s0,0,0,0c0-1.7-1.5-3-3.2-2.6"/>
  </g>
</svg>