<svg width="65" height="69" viewBox="0 0 65 69" fill="none" xmlns="http://www.w3.org/2000/svg">
<g clip-path="url(#clip0_117_64)">
<path d="M37.3552 53.9545L37.3556 53.9548L46.889 61.5515L46.8924 61.548L47.2486 61.8314C48.7789 63.0493 50.5694 62.8102 51.8065 61.7933C53.0468 60.7738 53.6972 58.995 52.8972 57.1435L52.8971 57.1433L47.7973 45.3262L47.7971 45.3258C47.132 43.7808 47.9603 41.9533 49.588 41.535L61.6827 38.4114L61.6828 38.4114C65.4367 37.4427 65.4611 31.8788 61.7113 30.8763C61.7112 30.8763 61.7111 30.8763 61.7111 30.8762L49.6414 27.6552C48.0189 27.2232 47.2033 25.3915 47.8816 23.8506L47.8817 23.8503L53.0715 12.0784C53.8846 10.2315 53.2475 8.44658 52.0152 7.41703C50.7862 6.39026 48.9981 6.13722 47.4583 7.34353C47.4583 7.34355 47.4583 7.34356 47.4582 7.34357L37.5078 15.1414C36.1708 16.1916 34.2526 15.7154 33.5091 14.1837L27.8869 2.62554C26.1566 -0.928343 20.956 0.209664 20.8496 4.28127L20.5108 17.2255C20.4673 18.9208 18.947 20.2029 17.2964 19.8477L17.2958 19.8476L5.09595 17.207L5.09589 17.207C3.21819 16.8003 1.69645 17.8178 0.99989 19.3063C0.302289 20.797 0.468082 22.6919 1.9521 23.9904L1.95226 23.9905L11.4815 32.3355L11.4823 32.3362C12.7394 33.4416 12.7372 35.4528 11.4641 36.5475L37.3552 53.9545ZM37.3552 53.9545C36.0236 52.8957 34.1056 53.3575 33.3489 54.8799L33.3487 54.8802M37.3552 53.9545L33.3487 54.8802M33.3487 54.8802L27.6399 66.3902L27.6398 66.3903M33.3487 54.8802L27.6398 66.3903M27.6398 66.3903C25.8851 69.9294 20.6928 68.7548 20.6154 64.6777M27.6398 66.3903L20.6154 64.6777M20.6154 64.6777L20.3776 51.7299C20.3776 51.7299 20.3775 51.7298 20.3775 51.7297C20.347 50.0358 18.8369 48.7388 17.1845 49.0845L20.6154 64.6777ZM1.87377 44.8138L11.4636 36.548L17.1837 49.0847L4.96679 51.6239C4.96673 51.6239 4.96668 51.6239 4.96662 51.6239C3.08544 52.0142 1.57135 50.9848 0.886141 49.4915C0.199952 47.9959 0.379859 46.1027 1.8736 44.8139C1.87366 44.8138 1.87372 44.8138 1.87377 44.8138Z" stroke="black"/>
</g>
<defs>
<clipPath id="clip0_117_64">
<rect width="65" height="69" fill="white"/>
</clipPath>
</defs>
</svg>
